<mxfile host="65bd71144e">
    <diagram id="Ht1M8jgEwFfnCIfOTk4-" name="Page-1">
        <mxGraphModel dx="473" dy="802" grid="1" gridSize="10" guides="1" tooltips="1" connect="1" arrows="1" fold="1" page="1" pageScale="1" pageWidth="827" pageHeight="1169" math="0" shadow="0">
            <root>
                <mxCell id="0"/>
                <mxCell id="1" parent="0"/>
                <mxCell id="jZVaUwOg5UY3L9NAnvdq-71" value="AWS Cloud" style="points=[[0,0],[0.25,0],[0.5,0],[0.75,0],[1,0],[1,0.25],[1,0.5],[1,0.75],[1,1],[0.75,1],[0.5,1],[0.25,1],[0,1],[0,0.75],[0,0.5],[0,0.25]];outlineConnect=0;gradientColor=none;html=1;whiteSpace=wrap;fontSize=12;fontStyle=0;shape=mxgraph.aws4.group;grIcon=mxgraph.aws4.group_aws_cloud_alt;strokeColor=#232F3E;fillColor=none;verticalAlign=top;align=left;spacingLeft=30;fontColor=#232F3E;dashed=0;labelBackgroundColor=none;container=1;pointerEvents=0;collapsible=0;recursiveResize=0;" parent="1" vertex="1">
                    <mxGeometry x="40" y="100" width="560" height="440" as="geometry"/>
                </mxCell>
                <mxCell id="62ASdKqzcNbD3jh50bKH-13" value="&lt;b&gt;VPC&lt;/b&gt;" style="points=[[0,0],[0.25,0],[0.5,0],[0.75,0],[1,0],[1,0.25],[1,0.5],[1,0.75],[1,1],[0.75,1],[0.5,1],[0.25,1],[0,1],[0,0.75],[0,0.5],[0,0.25]];outlineConnect=0;gradientColor=none;html=1;whiteSpace=wrap;fontSize=12;fontStyle=0;container=0;pointerEvents=0;collapsible=0;recursiveResize=0;shape=mxgraph.aws4.group;grIcon=mxgraph.aws4.group_vpc;strokeColor=#248814;fillColor=none;verticalAlign=top;align=left;spacingLeft=30;fontColor=#AAB7B8;dashed=0;" parent="jZVaUwOg5UY3L9NAnvdq-71" vertex="1">
                    <mxGeometry x="20" y="50" width="400" height="360" as="geometry"/>
                </mxCell>
                <mxCell id="zNsFo3Li7I948aQq0WSo-4" value="&lt;b&gt;KMS:&lt;br&gt;Notebook&lt;br&gt;&lt;/b&gt;" style="sketch=0;points=[[0,0,0],[0.25,0,0],[0.5,0,0],[0.75,0,0],[1,0,0],[0,1,0],[0.25,1,0],[0.5,1,0],[0.75,1,0],[1,1,0],[0,0.25,0],[0,0.5,0],[0,0.75,0],[1,0.25,0],[1,0.5,0],[1,0.75,0]];outlineConnect=0;fontColor=#232F3E;gradientColor=#F54749;gradientDirection=north;fillColor=#C7131F;strokeColor=#ffffff;dashed=0;verticalLabelPosition=bottom;verticalAlign=top;align=center;html=1;fontSize=12;fontStyle=0;aspect=fixed;shape=mxgraph.aws4.resourceIcon;resIcon=mxgraph.aws4.key_management_service;" parent="jZVaUwOg5UY3L9NAnvdq-71" vertex="1">
                    <mxGeometry x="462.38" y="80" width="54" height="54" as="geometry"/>
                </mxCell>
                <mxCell id="zNsFo3Li7I948aQq0WSo-1" value="&lt;b&gt;S3&lt;br&gt;Notebook bucket&lt;br&gt;&lt;/b&gt;" style="sketch=0;points=[[0,0,0],[0.25,0,0],[0.5,0,0],[0.75,0,0],[1,0,0],[0,1,0],[0.25,1,0],[0.5,1,0],[0.75,1,0],[1,1,0],[0,0.25,0],[0,0.5,0],[0,0.75,0],[1,0.25,0],[1,0.5,0],[1,0.75,0]];outlineConnect=0;fontColor=#232F3E;gradientColor=#60A337;gradientDirection=north;fillColor=#277116;strokeColor=#ffffff;dashed=0;verticalLabelPosition=bottom;verticalAlign=top;align=center;html=1;fontSize=12;fontStyle=0;aspect=fixed;shape=mxgraph.aws4.resourceIcon;resIcon=mxgraph.aws4.s3;" parent="jZVaUwOg5UY3L9NAnvdq-71" vertex="1">
                    <mxGeometry x="460" y="205.38" width="58.75" height="58.75" as="geometry"/>
                </mxCell>
                <mxCell id="g8jC1sPEOqBl6e2HWz04-4" value="Subnet" style="sketch=0;outlineConnect=0;gradientColor=none;html=1;whiteSpace=wrap;fontSize=12;fontStyle=0;shape=mxgraph.aws4.group;grIcon=mxgraph.aws4.group_subnet;strokeColor=#879196;fillColor=none;verticalAlign=top;align=left;spacingLeft=30;fontColor=#879196;dashed=0;" parent="jZVaUwOg5UY3L9NAnvdq-71" vertex="1">
                    <mxGeometry x="60" y="90" width="320" height="289.5" as="geometry"/>
                </mxCell>
                <mxCell id="Pjr3WMdlcIu-zuZ9H2YP-119" value="" style="group" parent="jZVaUwOg5UY3L9NAnvdq-71" vertex="1" connectable="0">
                    <mxGeometry x="88.5" y="142.25" width="263" height="185" as="geometry"/>
                </mxCell>
                <mxCell id="Pjr3WMdlcIu-zuZ9H2YP-71" value="&lt;b&gt;&amp;nbsp; &amp;nbsp; &amp;nbsp; &amp;nbsp; &amp;nbsp; &amp;nbsp; &amp;nbsp; SageMaker Service&lt;/b&gt;" style="rounded=0;whiteSpace=wrap;html=1;fontSize=12;align=left;labelPosition=center;verticalLabelPosition=middle;verticalAlign=top;container=0;" parent="Pjr3WMdlcIu-zuZ9H2YP-119" vertex="1">
                    <mxGeometry width="263" height="185" as="geometry"/>
                </mxCell>
                <mxCell id="Pjr3WMdlcIu-zuZ9H2YP-90" value="" style="outlineConnect=0;fontColor=#232F3E;gradientColor=#4AB29A;gradientDirection=north;fillColor=#116D5B;strokeColor=#ffffff;dashed=0;verticalLabelPosition=bottom;verticalAlign=top;align=center;html=1;fontSize=12;fontStyle=1;aspect=fixed;shape=mxgraph.aws4.resourceIcon;resIcon=mxgraph.aws4.sagemaker;labelBackgroundColor=#ffffff;spacingTop=7;container=0;" parent="Pjr3WMdlcIu-zuZ9H2YP-119" vertex="1">
                    <mxGeometry width="40" height="40" as="geometry"/>
                </mxCell>
                <mxCell id="g8jC1sPEOqBl6e2HWz04-1" value="&lt;b&gt;IAM&lt;br&gt;Notebook &lt;br&gt;User Role&lt;br&gt;&lt;/b&gt;" style="sketch=0;outlineConnect=0;fontColor=#232F3E;gradientColor=none;fillColor=#BF0816;strokeColor=none;dashed=0;verticalLabelPosition=bottom;verticalAlign=top;align=center;html=1;fontSize=12;fontStyle=0;aspect=fixed;pointerEvents=1;shape=mxgraph.aws4.role;" parent="Pjr3WMdlcIu-zuZ9H2YP-119" vertex="1">
                    <mxGeometry x="50" y="72.75" width="70.02" height="39.5" as="geometry"/>
                </mxCell>
                <mxCell id="g8jC1sPEOqBl6e2HWz04-2" value="&lt;b&gt;Notebook&lt;/b&gt;" style="sketch=0;outlineConnect=0;fontColor=#232F3E;gradientColor=none;fillColor=#3F8624;strokeColor=none;dashed=0;verticalLabelPosition=bottom;verticalAlign=top;align=center;html=1;fontSize=12;fontStyle=0;aspect=fixed;pointerEvents=1;shape=mxgraph.aws4.notebook;" parent="Pjr3WMdlcIu-zuZ9H2YP-119" vertex="1">
                    <mxGeometry x="180" y="63.5" width="50.56" height="58" as="geometry"/>
                </mxCell>
                <mxCell id="g8jC1sPEOqBl6e2HWz04-3" value="Access&lt;br&gt;data" style="edgeStyle=orthogonalEdgeStyle;rounded=0;orthogonalLoop=1;jettySize=auto;html=1;entryX=0;entryY=0.5;entryDx=0;entryDy=0;entryPerimeter=0;" parent="jZVaUwOg5UY3L9NAnvdq-71" source="g8jC1sPEOqBl6e2HWz04-2" target="zNsFo3Li7I948aQq0WSo-1" edge="1">
                    <mxGeometry relative="1" as="geometry">
                        <mxPoint x="455" y="245" as="sourcePoint"/>
                    </mxGeometry>
                </mxCell>
            </root>
        </mxGraphModel>
    </diagram>
</mxfile>